<mxfile host="app.diagrams.net" modified="2023-11-17T03:50:39.959Z" agent="Mozilla/5.0 (Windows NT 10.0; Win64; x64) AppleWebKit/537.36 (KHTML, like Gecko) Chrome/116.0.0.0 Safari/537.36 OPR/102.0.0.0" version="22.1.2" etag="iVG6vVbQ6q0wn_rKGehi" type="github">
  <diagram name="Page-1" id="XXRZ2J5ctTl-hjEEoI9W">
    <mxGraphModel>
      <root>
        <mxCell id="0" />
        <mxCell id="1" parent="0" />
      </root>
    </mxGraphModel>
  </diagram>
</mxfile>
